<?xml version="1.0" standalone="no"?>
<!DOCTYPE svg PUBLIC "-//W3C//DTD SVG 20010904//EN"
 "http://www.w3.org/TR/2001/REC-SVG-20010904/DTD/svg10.dtd">
<svg version="1.0" xmlns="http://www.w3.org/2000/svg"
 width="607.000000pt" height="398.000000pt" viewBox="0 0 607.000000 398.000000"
 preserveAspectRatio="xMidYMid meet">
<metadata>
Created by potrace 1.16, written by Peter Selinger 2001-2019
</metadata>
<g transform="translate(0.000000,398.000000) scale(0.100000,-0.100000)"
fill="#000000" stroke="none">
<path d="M2745 3574 c-176 -17 -260 -28 -395 -50 -85 -14 -157 -30 -158 -35
-2 -5 -8 -6 -13 -3 -15 9 -367 -79 -379 -95 -3 -3 -16 -7 -29 -9 -14 -1 -38
-9 -54 -17 -34 -17 -38 -18 -35 -7 4 15 -32 71 -49 74 -10 3 -25 -2 -34 -9
-10 -8 -40 -14 -69 -15 -62 0 -119 -31 -120 -65 0 -12 4 -25 10 -28 13 -8 6
-70 -9 -71 -6 -1 -12 -2 -13 -4 -2 -1 -11 -3 -22 -5 -10 -2 -24 -9 -30 -16 -8
-9 -8 -10 2 -5 15 9 16 -6 1 -21 -20 -20 26 -36 67 -23 23 8 39 9 47 2 7 -6
32 -18 57 -28 52 -20 81 -43 121 -98 33 -44 39 -30 9 19 -23 37 -51 58 -124
95 -28 14 -51 30 -53 35 -1 6 32 23 75 38 42 16 100 37 128 48 28 11 67 22 85
23 19 2 57 11 84 21 71 24 297 81 382 96 40 7 69 17 66 23 -3 5 -1 6 4 3 6 -4
69 2 139 12 71 11 181 25 244 32 131 13 630 19 675 7 17 -4 68 -9 115 -12 47
-2 92 -6 100 -9 8 -3 56 -11 105 -17 98 -13 360 -64 413 -81 18 -6 58 -14 88
-18 53 -8 56 -7 65 17 5 14 8 25 7 26 -2 0 -19 9 -38 18 -45 23 -247 71 -266
64 -8 -3 -14 -2 -14 3 0 9 -197 45 -375 67 -114 15 -711 28 -810 18z"/>
<path d="M4914 3153 c2 -3 -4 -13 -15 -24 -10 -10 -16 -25 -13 -32 7 -18 52
-39 66 -31 6 4 9 3 5 -2 -4 -8 27 -25 143 -77 50 -23 166 -97 205 -131 22 -19
51 -41 65 -48 14 -7 31 -19 38 -25 20 -19 43 -16 49 7 3 11 9 18 13 15 5 -3 6
4 3 15 -3 11 -10 20 -15 20 -5 0 -60 33 -121 73 -62 41 -143 91 -182 112 -38
22 -75 46 -82 55 -7 8 -13 11 -13 5 0 -6 -3 -6 -8 0 -12 18 -62 46 -71 40 -5
-2 -11 1 -14 9 -3 7 -17 16 -32 18 -14 3 -24 3 -21 1z"/>
<path d="M3075 2947 c-100 -34 -161 -88 -206 -182 l-29 -60 34 -17 c82 -42
294 -78 436 -74 l35 1 3 -72 c3 -71 3 -73 29 -73 15 0 34 -7 44 -16 16 -14 18
-14 24 7 5 14 10 18 15 10 12 -21 42 110 43 189 1 62 -4 84 -26 126 -32 64
-103 127 -165 149 -64 22 -187 28 -237 12z"/>
<path d="M670 2863 c-19 -12 -37 -28 -42 -35 -4 -7 -8 -9 -8 -5 0 12 -118 -71
-129 -91 -12 -23 4 -52 30 -52 21 0 163 91 191 122 9 11 20 18 23 17 4 -1 15
4 25 11 15 11 16 17 7 37 -13 29 -51 28 -97 -4z"/>
<path d="M916 2253 c-3 -3 -6 -11 -6 -17 0 -6 5 -4 10 4 6 9 10 10 10 3 0 -6
-4 -15 -10 -18 -5 -3 -10 -24 -10 -45 0 -21 5 -42 10 -45 6 -3 10 -12 10 -18
0 -7 -4 -6 -11 3 -9 13 -10 13 -7 0 3 -8 28 -20 58 -28 66 -16 125 -57 141
-97 7 -16 19 -36 27 -42 13 -11 13 -13 1 -13 -12 0 -12 -2 1 -10 11 -7 11 -10
2 -10 -8 0 -10 -5 -6 -12 12 -19 14 -57 3 -64 -5 -3 -6 -10 -3 -16 4 -6 2 -8
-3 -5 -6 4 -16 -6 -23 -22 -6 -16 -21 -38 -33 -50 -25 -23 -102 -59 -138 -64
-22 -4 -24 -9 -27 -65 l-3 -61 45 -6 c48 -8 133 -55 142 -80 4 -8 11 -12 17
-8 6 3 7 1 3 -6 -4 -6 2 -25 14 -41 21 -30 24 -69 5 -82 -6 -5 -5 -8 3 -8 16
0 15 -27 -2 -37 -8 -4 -16 -17 -18 -28 -1 -11 -11 -26 -21 -33 -9 -7 -14 -18
-11 -24 4 -6 2 -8 -3 -5 -6 4 -22 -4 -37 -18 -14 -13 -26 -22 -26 -20 0 2 -15
-1 -32 -6 -18 -6 -37 -11 -43 -12 -27 -6 -35 -22 -35 -66 0 -52 12 -71 47 -71
36 0 85 -24 118 -58 50 -50 71 -75 58 -68 -16 9 -17 -6 -1 -22 19 -19 19 -94
0 -116 -9 -11 -11 -16 -5 -12 9 5 11 2 7 -9 -4 -9 -9 -14 -12 -11 -6 7 -42
-39 -42 -55 0 -7 -3 -9 -6 -6 -4 4 -19 -2 -35 -13 -15 -11 -47 -23 -72 -26
-39 -6 -44 -9 -39 -27 4 -14 2 -18 -7 -13 -9 6 -11 -8 -9 -56 l3 -63 2023 -3
c1921 -2 2022 -1 2022 15 0 15 -2 16 -10 3 -7 -11 -10 -3 -10 30 0 33 3 41 10
30 7 -12 10 -8 10 15 0 23 -3 27 -10 15 -7 -11 -10 -8 -10 16 0 26 -5 33 -27
39 -47 11 -102 38 -97 47 5 7 -10 12 -29 9 -5 -1 -6 3 -2 9 3 5 1 10 -5 10 -6
0 -8 5 -5 10 3 6 1 10 -5 10 -6 0 -8 5 -5 10 3 6 2 10 -3 10 -5 0 -8 11 -7 25
2 14 -1 27 -6 31 -5 3 -7 9 -4 14 5 8 25 93 27 117 1 7 3 11 5 9 2 -1 19 12
39 30 19 18 54 39 77 45 23 6 48 13 55 15 8 2 11 20 10 51 l-1 48 -7 -50 c-8
-49 -8 -49 -6 16 0 38 -3 66 -9 66 -24 0 -107 44 -132 70 -14 15 -23 22 -18
14 6 -10 4 -12 -4 -7 -7 5 -10 13 -8 20 3 6 -1 20 -8 30 -8 10 -11 24 -9 31 3
7 0 23 -6 35 -8 14 -8 25 -3 29 6 3 12 17 15 31 3 14 9 34 13 44 7 15 5 17 -6
11 -8 -4 2 7 21 24 37 34 109 77 124 73 4 -2 17 0 28 4 15 4 17 9 9 17 -6 6
-10 34 -9 61 l1 51 7 -55 7 -55 1 56 c2 57 2 57 -31 63 -18 3 -49 15 -70 26
-20 11 -37 17 -37 14 0 -4 -7 -1 -15 6 -8 7 -13 16 -10 20 3 5 -1 14 -8 22
-15 14 -15 15 -23 58 -4 16 -9 28 -13 26 -9 -6 -7 58 2 65 4 3 9 16 10 27 1
12 5 22 10 22 5 0 7 6 4 13 -2 6 3 18 12 25 10 8 10 11 2 6 -9 -5 -12 -3 -7 4
4 7 14 12 22 12 9 0 12 5 8 13 -4 6 -4 9 0 5 5 -4 24 2 44 13 20 10 51 22 69
25 28 5 31 9 23 24 -6 10 -10 46 -10 80 l0 62 -287 -5 -288 -4 -87 -89 c-48
-49 -222 -226 -387 -394 l-300 -305 -6 -105 c-8 -115 7 -325 30 -441 9 -41 18
-89 21 -107 l7 -32 -431 0 -430 0 -11 33 c-45 144 -72 303 -80 469 l-6 147
-109 113 c-60 62 -216 221 -347 353 -221 224 -238 244 -254 297 -16 49 -22 57
-49 62 -40 8 -1002 7 -1010 -1z m782 -1450 l-3 -248 -196 -3 -197 -2 -5 32
c-6 38 -6 449 0 461 2 4 94 7 204 7 l199 0 -2 -247z"/>
<path d="M1390 800 l0 -210 40 0 40 0 0 210 0 210 -40 0 -40 0 0 -210z"/>
<path d="M1560 800 c0 -203 1 -210 20 -210 19 0 20 7 20 210 0 203 -1 210 -20
210 -19 0 -20 -7 -20 -210z"/>
<path d="M2347 2252 c-13 -6 35 -49 218 -195 264 -211 237 -200 327 -126 26
22 51 39 57 39 6 0 11 6 11 13 0 6 3 22 6 35 5 16 2 22 -10 22 -32 0 -97 41
-116 73 -13 21 -20 50 -20 83 0 38 -4 53 -16 58 -22 8 -435 6 -457 -2z"/>
<path d="M3370 2251 c-26 -7 -25 -2 -54 -204 l-7 -47 38 -16 c54 -23 121 -12
202 32 88 48 332 224 326 234 -6 10 -470 11 -505 1z"/>
</g>
</svg>
